<svg width="83" height="30" viewBox="0 0 83 30" fill="none" xmlns="http://www.w3.org/2000/svg">
<g clip-path="url(#clip0_3929_533)">
<path d="M12.9888 24.8429C19.5931 24.299 24.504 18.53 23.9575 11.9573C23.4111 5.38467 17.6142 0.497341 11.0099 1.04118C4.40551 1.58501 -0.505373 7.35407 0.041084 13.9267C0.587541 20.4994 6.38441 25.3867 12.9888 24.8429Z" fill="#0065FD"/>
<path d="M4.83938 9.82992C5.06777 9.82992 5.29616 9.8377 5.52454 9.8377H7.11739C7.21109 9.8377 7.23842 9.86683 7.23842 9.95814C7.23061 10.2845 7.23842 10.6128 7.23842 10.9392V11.0752C7.23842 11.0752 7.25989 11.0829 7.2677 11.0888C7.28917 11.0538 7.31845 11.0247 7.33993 10.9897C7.70495 10.4574 8.15392 10.0222 8.78247 9.81633C9.94002 9.43945 11.1757 9.8241 11.7183 11.2597C11.9818 11.963 12.0404 12.6895 11.9896 13.4277C11.9389 14.1465 11.7886 14.8498 11.4177 15.4831C10.875 16.4 10.0669 16.841 8.99524 16.7497C8.38816 16.6933 7.86697 16.4291 7.42972 16.0095C7.37897 15.959 7.33602 15.9027 7.29308 15.8463C7.27941 15.8541 7.2638 15.8599 7.25013 15.8677V19.0809H6.03597C6.03597 19.0459 6.02817 19.0168 6.02817 18.9818C6.02817 16.4427 6.03597 13.9056 6.03597 11.3666C6.03597 11.1742 6.02231 10.9819 5.99303 10.7915C5.93642 10.471 5.77831 10.3156 5.45818 10.2573C5.30006 10.2282 5.1439 10.2146 4.97993 10.201C4.89404 10.1932 4.87257 10.166 4.87257 10.0864C4.87257 10.0067 4.85891 9.929 4.8511 9.85129C4.83743 9.84352 4.83743 9.83769 4.83743 9.82992H4.83938ZM7.24037 13.4277C7.24037 14.0397 7.24037 14.6438 7.24818 15.2558C7.24818 15.3121 7.28332 15.3976 7.33407 15.4345C7.79084 15.7686 8.2847 16.0251 8.85665 16.1028C9.29976 16.1591 9.70773 16.0814 10.0357 15.7609C10.2992 15.5122 10.4495 15.1917 10.5432 14.8517C10.7794 13.9911 10.7931 13.1247 10.6369 12.2485C10.551 11.7998 10.4163 11.3743 10.143 10.9975C9.78581 10.4846 9.29195 10.3 8.70049 10.471C8.09926 10.642 7.64249 11.0033 7.27941 11.5026C7.25013 11.5453 7.24428 11.6016 7.24428 11.6599C7.23647 12.2427 7.24428 12.841 7.24428 13.4297L7.24037 13.4277Z" fill="white"/>
<path d="M11.8514 7.17197V6.80481H14.2309V11.1156C14.3949 10.9174 14.5355 10.7193 14.7072 10.5503C15.4529 9.79456 16.3547 9.5459 17.3776 9.83536C18.0237 10.0199 18.4434 10.4861 18.7479 11.0651C18.9958 11.5527 19.111 12.0752 19.1461 12.6134C19.1949 13.4196 19.1325 14.2102 18.826 14.9737C18.5781 15.5895 18.1935 16.1121 17.604 16.4579C16.6456 17.0096 15.367 16.8756 14.5218 16.1393C14.4359 16.0693 14.3656 15.9916 14.2797 15.9198C14.2505 15.8984 14.2153 15.877 14.1802 15.877C14.1665 15.877 14.1451 15.9256 14.1372 15.9625C14.0943 16.182 14.0514 16.4074 14.0084 16.6269C14.0006 16.6619 13.9596 16.7124 13.9381 16.7124C13.6258 16.7201 13.3193 16.7201 12.9934 16.7201V8.37253C12.9934 8.11028 12.9582 7.84996 12.9367 7.5877C12.9231 7.43229 12.8235 7.33321 12.6732 7.30602C12.4468 7.26328 12.2184 7.22831 11.992 7.19334C11.949 7.17974 11.9002 7.17974 11.8495 7.17197H11.8514ZM14.2368 13.4681V15.2845C14.2368 15.3331 14.2583 15.3972 14.2934 15.4186C14.7404 15.743 15.2167 15.9916 15.7711 16.0752C16.6651 16.2092 17.3054 15.8712 17.6177 15.0145C17.7739 14.5754 17.8305 14.1247 17.8383 13.6643C17.8597 13.0349 17.8305 12.4133 17.6685 11.8052C17.5689 11.4439 17.4205 11.1059 17.1355 10.8436C16.7373 10.49 16.2689 10.4415 15.7652 10.5405C15.1679 10.6532 14.7131 10.999 14.3305 11.4458C14.2602 11.5235 14.2387 11.6012 14.2387 11.7081V13.4681H14.2368Z" fill="white"/>
<path d="M23.68 1.64102C24.3769 1.64879 25.0737 1.66239 25.7726 1.66433C27.4005 1.66822 29.0305 1.67211 30.6604 1.65851C30.9513 1.65656 31.0391 1.74204 31.0333 2.02955C31.0176 3.03391 31.0274 4.03632 31.0274 5.04067V5.45446C31.0606 5.46806 31.0918 5.48166 31.125 5.4972C31.2011 5.39812 31.2831 5.30099 31.3514 5.19609C32.4602 3.55454 33.8461 2.22771 35.7689 1.60217C39.3137 0.448231 43.1124 1.62937 44.7677 6.03337C45.5758 8.1839 45.7554 10.418 45.5973 12.6753C45.4431 14.8822 44.9766 17.0327 43.8385 18.9656C42.1813 21.7806 39.6905 23.1249 36.4033 22.8354C34.541 22.6722 32.9462 21.8505 31.5974 20.5645C31.4432 20.4168 31.3202 20.2342 31.1816 20.0691C31.1387 20.0924 31.0977 20.1157 31.0547 20.141V29.9999H27.34C27.3322 29.8989 27.3147 29.8018 27.3147 29.7047C27.3225 21.9204 27.3322 14.1362 27.3322 6.35197C27.3322 5.76334 27.2912 5.16889 27.1936 4.58804C27.0277 3.59728 26.5436 3.12716 25.5539 2.94649C25.0737 2.85907 24.5818 2.8105 24.0938 2.78136C23.8381 2.76582 23.76 2.67452 23.7561 2.43363C23.7542 2.19468 23.7073 1.95768 23.68 1.72067V1.64297V1.64102ZM31.0255 12.6831C31.0255 14.548 31.0176 16.413 31.0372 18.2779C31.0391 18.4606 31.1562 18.7053 31.3007 18.8122C32.6964 19.8418 34.2151 20.6227 35.9602 20.8539C37.3129 21.0346 38.5603 20.7801 39.5831 19.8049C40.3932 19.0336 40.8519 18.0623 41.1428 17.0094C41.8709 14.3751 41.9119 11.7098 41.42 9.03478C41.1682 7.66132 40.7329 6.35003 39.915 5.19026C38.814 3.6303 37.3129 3.05722 35.4936 3.57008C33.6587 4.08683 32.2416 5.20969 31.1348 6.73079C31.0469 6.85123 31.0294 7.04356 31.0294 7.20091C31.0216 9.02701 31.0255 10.8531 31.0255 12.6811V12.6831Z" fill="#0065FD"/>
<path d="M65.1485 21.2051C65.1602 21.345 65.17 21.4848 65.1817 21.6228C65.2617 22.6194 65.2656 22.6465 64.274 22.8428C63.6845 22.9593 63.0696 23.0429 62.4723 23.0098C60.9087 22.9205 60.0147 21.9608 59.5072 20.5698C59.4095 20.3056 59.3412 20.0317 59.2456 19.719C58.8337 20.0784 58.4511 20.43 58.049 20.7563C56.7528 21.8112 55.3357 22.6232 53.6628 22.9341C50.9553 23.4372 48.2186 22.2347 46.9947 19.9968C45.6771 17.5918 46.0167 13.7764 49.3625 11.8357C50.7621 11.0236 52.3003 10.637 53.8892 10.4719C55.2225 10.3359 56.5655 10.3107 57.9045 10.2368C58.0568 10.2291 58.2071 10.2368 58.4062 10.2368C58.3516 8.47874 58.5721 6.75172 58.0295 5.07326C57.5239 3.51331 56.3195 2.643 54.672 2.71682C54.0259 2.74596 53.3622 2.84698 52.7473 3.04124C51.3204 3.49194 50.6176 4.54097 50.4986 6.00185C50.4771 6.2544 50.4634 6.50889 50.4459 6.78669H47.8614V6.30491C47.8614 5.30055 47.8536 4.29814 47.8711 3.29379C47.8731 3.16169 47.9668 2.95771 48.0722 2.91108C50.723 1.77074 53.4676 1.07139 56.3859 1.27925C57.5278 1.36084 58.6326 1.60368 59.636 2.19036C61.0941 3.04319 61.8164 4.37391 62.0526 5.9902C62.1463 6.63516 62.1853 7.29372 62.1873 7.9484C62.2009 10.9343 62.1717 13.9182 62.2048 16.9041C62.2146 17.887 62.3005 18.8797 62.4703 19.8472C62.6343 20.7894 63.1789 21.2575 64.0163 21.3178C64.3794 21.345 64.7542 21.2459 65.1524 21.2012L65.1485 21.2051ZM58.4004 11.3966C56.5908 11.3869 54.8477 11.4491 53.2138 12.2125C51.1759 13.1644 50.2389 14.7108 50.3248 16.9487C50.4166 19.3246 52.6341 21.1429 54.9902 20.7699C56.1497 20.5873 57.1589 20.0531 58.1407 19.447C58.3457 19.3207 58.4062 19.1789 58.4043 18.9497C58.3965 16.6612 58.4004 14.3708 58.4004 12.0824C58.4004 11.8784 58.4004 11.6725 58.4004 11.3966Z" fill="#0065FD"/>
<path d="M82.9999 1.46066C82.5782 2.26104 82.1429 3.00313 81.7857 3.7802C79.7029 8.30853 77.6377 12.8446 75.5685 17.3807C74.0655 20.6774 72.5741 23.9819 71.0574 27.2728C70.503 28.4733 69.7183 29.4602 68.2836 29.6486C67.7351 29.7205 67.1748 29.738 66.6204 29.7361C65.5215 29.7302 64.4244 29.6972 63.3254 29.6681C63.0951 29.6622 62.8648 29.6311 62.6422 29.6137C62.4978 29.0114 62.5407 28.9396 63.1029 28.957C63.8251 28.9804 64.5474 29.0173 65.2696 29.0658C66.4506 29.1435 67.5828 28.992 68.6603 28.4714C69.3259 28.1489 69.8647 27.6904 70.1556 27.0222C70.5811 26.0469 70.9383 25.0426 71.3268 24.0518C71.5181 23.5623 71.6898 23.0611 71.9182 22.589C72.0393 22.3384 72.0295 22.1461 71.928 21.9052C69.7515 16.7319 67.5828 11.5547 65.4121 6.37947C65.1291 5.70343 64.8753 5.01573 64.5591 4.35717C64.0828 3.35864 63.341 2.67677 62.1757 2.56215C62.0957 2.55438 62.0273 2.40868 61.959 2.3232C61.9454 2.30766 61.9571 2.2727 61.9571 2.24744C61.9707 1.28971 61.838 1.47232 62.7184 1.46649C64.4888 1.45484 66.2613 1.46261 68.0318 1.46261H68.512C68.512 1.93273 68.5373 2.36789 68.5061 2.79721C68.4436 3.64227 68.6603 4.41933 68.9843 5.19057C70.6865 9.22547 72.377 13.2662 74.0733 17.303C74.1221 17.4157 74.1767 17.5264 74.2509 17.6857C74.3251 17.5847 74.3778 17.5323 74.4051 17.4701C76.1385 13.5731 77.8973 9.68782 79.5838 5.77142C80.1363 4.48927 80.5052 3.13135 80.9385 1.79869C81.0264 1.52477 81.1572 1.44512 81.4324 1.45678C81.9438 1.47815 82.4572 1.46261 82.9999 1.46261V1.46066Z" fill="#0065FD"/>
</g>
<defs>
<clipPath id="clip0_3929_533">
<rect width="83" height="28.548" fill="white" transform="translate(0 0.812988)"/>
</clipPath>
</defs>
</svg>
