<svg width="137" height="47" viewBox="0 0 137 47" fill="none" xmlns="http://www.w3.org/2000/svg">
<g clip-path="url(#clip0_4006_2039)">
<path d="M21.4382 38.6394C32.3394 37.758 40.4453 28.4082 39.5433 17.756C38.6413 7.10371 29.073 -0.817129 18.1719 0.0642602C7.27072 0.945649 -0.835204 10.2955 0.0667796 20.9477C0.968763 31.6 10.5371 39.5208 21.4382 38.6394Z" fill="white"/>
<path d="M7.9876 14.3085C8.36457 14.3085 8.74155 14.3211 9.11852 14.3211H11.7477C11.9023 14.3211 11.9475 14.3683 11.9475 14.5163C11.9346 15.0452 11.9475 15.5773 11.9475 16.1063V16.3267C11.9475 16.3267 11.9829 16.3393 11.9958 16.3487C12.0312 16.292 12.0796 16.2448 12.115 16.1881C12.7175 15.3255 13.4586 14.6202 14.4961 14.2865C16.4067 13.6757 18.4463 14.2991 19.342 16.6258C19.7769 17.7655 19.8736 18.943 19.7898 20.1394C19.7061 21.3044 19.458 22.4441 18.8458 23.4705C17.9501 24.9566 16.6161 25.6713 14.8473 25.5233C13.8452 25.432 12.9849 25.0038 12.2632 24.3237C12.1794 24.2419 12.1086 24.1505 12.0377 24.0592C12.0151 24.0718 11.9893 24.0813 11.9668 24.0939V29.3014H9.96269C9.96269 29.2447 9.9498 29.1975 9.9498 29.1408C9.9498 25.0258 9.96269 20.9139 9.96269 16.7989C9.96269 16.4872 9.94014 16.1755 9.89181 15.867C9.79837 15.3475 9.53738 15.0956 9.00897 15.0012C8.74799 14.9539 8.49023 14.9319 8.21958 14.9099C8.07781 14.8973 8.04237 14.8532 8.04237 14.7241C8.04237 14.595 8.01982 14.4691 8.00693 14.3431C7.98437 14.3305 7.98438 14.3211 7.98438 14.3085H7.9876ZM11.9507 20.1394C11.9507 21.1312 11.9507 22.1104 11.9636 23.1021C11.9636 23.1934 12.0216 23.332 12.1053 23.3918C12.8593 23.9333 13.6744 24.3489 14.6185 24.4748C15.3499 24.5661 16.0233 24.4402 16.5646 23.9207C16.9996 23.5177 17.2477 22.9982 17.4023 22.4472C17.7922 21.0525 17.8147 19.6483 17.557 18.2283C17.4152 17.501 17.1929 16.8115 16.7418 16.2007C16.1522 15.3695 15.337 15.0704 14.3607 15.3475C13.3684 15.6246 12.6144 16.2102 12.0151 17.0193C11.9668 17.0886 11.9571 17.1799 11.9571 17.2743C11.9442 18.2189 11.9571 19.1886 11.9571 20.1426L11.9507 20.1394Z" fill="#0065FD"/>
<path d="M19.5599 10.0013V9.40625H23.4875V16.3927C23.7581 16.0715 23.9901 15.7504 24.2737 15.4765C25.5045 14.2517 26.993 13.8487 28.6814 14.3178C29.7479 14.6169 30.4406 15.3726 30.9432 16.3108C31.3524 17.1011 31.5425 17.948 31.6005 18.8201C31.6811 20.1267 31.578 21.4081 31.0721 22.6455C30.6629 23.6435 30.0282 24.4905 29.0551 25.0509C27.4731 25.945 25.3627 25.7278 23.9676 24.5345C23.8258 24.4212 23.7098 24.2953 23.568 24.1788C23.5197 24.1441 23.4617 24.1095 23.4037 24.1095C23.3812 24.1095 23.3457 24.1882 23.3328 24.248C23.262 24.6038 23.1911 24.969 23.1202 25.3248C23.1073 25.3815 23.0396 25.4633 23.0042 25.4633C22.4887 25.4759 21.9828 25.4759 21.4447 25.4759V11.947C21.4447 11.522 21.3867 11.1001 21.3513 10.6751C21.3287 10.4232 21.1644 10.2626 20.9163 10.2185C20.5426 10.1493 20.1656 10.0926 19.7918 10.0359C19.721 10.0139 19.6404 10.0139 19.5566 10.0013H19.5599ZM23.4972 20.2054V23.1492C23.4972 23.2279 23.5326 23.3318 23.5906 23.3665C24.3284 23.8923 25.1146 24.2953 26.0297 24.4306C27.5053 24.6479 28.5622 24.1 29.0777 22.7116C29.3355 22 29.4289 21.2696 29.4418 20.5234C29.4772 19.5033 29.4289 18.4958 29.1615 17.5104C28.9971 16.9247 28.7523 16.3769 28.2819 15.9519C27.6246 15.3789 26.8513 15.3001 26.02 15.4607C25.0341 15.6433 24.2833 16.2037 23.6518 16.9279C23.5358 17.0538 23.5004 17.1798 23.5004 17.3529V20.2054H23.4972Z" fill="#0065FD"/>
<path d="M39.0859 1.0405C40.2362 1.05309 41.3865 1.07513 42.5399 1.07828C45.2271 1.08458 47.9175 1.09087 50.6079 1.06883C51.0879 1.06569 51.2329 1.20422 51.2233 1.67019C51.1975 3.29793 51.2136 4.92253 51.2136 6.55028V7.2209C51.2684 7.24294 51.3199 7.26498 51.3747 7.29016C51.5004 7.12959 51.6357 6.97217 51.7485 6.80215C53.5786 4.14172 55.8662 1.99133 59.0399 0.97753C64.891 -0.892647 71.1611 1.02161 73.8933 8.15913C75.2273 11.6445 75.5237 15.2652 75.2627 18.9237C75.0082 22.5003 74.2381 25.9856 72.3597 29.1183C69.6242 33.6804 65.5129 35.8592 60.087 35.39C57.0132 35.1256 54.3808 33.7938 52.1544 31.7095C51.8999 31.4702 51.6969 31.1743 51.4681 30.9067C51.3973 30.9444 51.3296 30.9822 51.2587 31.0231V47.0015H45.1272C45.1143 46.8378 45.0853 46.6804 45.0853 46.5229C45.0982 33.9071 45.1143 21.2913 45.1143 8.67548C45.1143 7.7215 45.0467 6.75808 44.8856 5.81669C44.6117 4.21098 43.8126 3.44906 42.1791 3.15625C41.3865 3.01457 40.5745 2.93586 39.769 2.88864C39.3469 2.86345 39.218 2.71547 39.2116 2.32506C39.2084 1.93781 39.131 1.5537 39.0859 1.16958V1.04365V1.0405ZM51.2104 18.9363C51.2104 21.9588 51.1975 24.9813 51.2297 28.0038C51.2329 28.2997 51.4263 28.6964 51.6647 28.8696C53.9684 30.5383 56.4751 31.804 59.3556 32.1786C61.5885 32.4714 63.6473 32.059 65.3357 30.4785C66.6728 29.2285 67.43 27.6543 67.9101 25.9479C69.1119 21.6786 69.1795 17.3589 68.3676 13.0235C67.952 10.7975 67.2334 8.67233 65.8834 6.79271C64.0662 4.26451 61.5885 3.33572 58.5856 4.16691C55.5569 5.00439 53.2177 6.82419 51.3908 9.28943C51.2458 9.48463 51.2168 9.79633 51.2168 10.0514C51.2039 13.0109 51.2104 15.9704 51.2104 18.9331V18.9363Z" fill="white"/>
<path d="M107.534 32.7511C107.554 32.9778 107.57 33.2045 107.589 33.428C107.721 35.0432 107.728 35.0873 106.091 35.4053C105.118 35.5942 104.103 35.7296 103.117 35.676C100.536 35.5312 99.0604 33.9759 98.2227 31.7216C98.0616 31.2934 97.9488 30.8495 97.791 30.3426C97.1111 30.925 96.4796 31.4949 95.8159 32.0238C93.6765 33.7334 91.3373 35.0495 88.576 35.5532C84.1071 36.3687 79.5898 34.4198 77.5696 30.7928C75.3947 26.895 75.9554 20.7115 81.4779 17.5662C83.7881 16.2501 86.327 15.6236 88.9498 15.356C91.1504 15.1356 93.3671 15.0946 95.5774 14.975C95.8288 14.9624 96.0768 14.975 96.4055 14.975C96.3153 12.1257 96.6794 9.32669 95.7836 6.60643C94.9491 4.07823 92.9612 2.66773 90.2418 2.78737C89.1753 2.83459 88.0798 2.99831 87.0649 3.31316C84.7096 4.0436 83.5497 5.74376 83.3531 8.11139C83.3177 8.52069 83.2951 8.93313 83.2661 9.38336H79.0002V8.60255C79.0002 6.9748 78.9873 5.3502 79.0163 3.72246C79.0195 3.50836 79.1742 3.17777 79.3482 3.10221C83.7237 1.25407 88.2538 0.120634 93.0707 0.457518C94.9556 0.589752 96.7793 0.983308 98.4354 1.93414C100.842 3.31631 102.034 5.47299 102.424 8.0925C102.579 9.13778 102.643 10.2051 102.647 11.2661C102.669 16.1053 102.621 20.9413 102.676 25.7805C102.692 27.3736 102.833 28.9824 103.114 30.5504C103.384 32.0774 104.283 32.8361 105.666 32.9337C106.265 32.9778 106.883 32.8172 107.541 32.7448L107.534 32.7511ZM96.3958 16.8546C93.409 16.8389 90.5318 16.9396 87.8349 18.177C84.4712 19.7197 82.9246 22.2259 83.0664 25.8529C83.2178 29.7034 86.878 32.6504 90.767 32.0459C92.6808 31.7499 94.3466 30.8841 95.9673 29.9018C96.3056 29.6971 96.4055 29.4673 96.4023 29.0958C96.3894 25.3869 96.3958 21.6749 96.3958 17.966C96.3958 17.6354 96.3958 17.3017 96.3958 16.8546Z" fill="white"/>
<path d="M136.999 0.750252C136.303 2.04741 135.584 3.25012 134.995 4.5095C131.557 11.8485 128.148 19.2001 124.733 26.5518C122.252 31.8947 119.79 37.2502 117.287 42.5837C116.371 44.5294 115.076 46.1288 112.708 46.4342C111.803 46.5507 110.878 46.579 109.963 46.5759C108.149 46.5664 106.338 46.5129 104.524 46.4657C104.144 46.4562 103.764 46.4059 103.396 46.3775C103.158 45.4015 103.229 45.285 104.157 45.3134C105.349 45.3511 106.541 45.411 107.733 45.4897C109.683 45.6156 111.551 45.37 113.33 44.5262C114.429 44.0036 115.318 43.2606 115.798 42.1775C116.5 40.597 117.09 38.9692 117.731 37.3635C118.047 36.5701 118.33 35.7578 118.707 34.9927C118.907 34.5866 118.891 34.2749 118.724 33.8845C115.131 25.5002 111.551 17.1096 107.968 8.72212C107.501 7.62646 107.082 6.51191 106.56 5.44458C105.774 3.82628 104.55 2.72118 102.626 2.53542C102.494 2.52283 102.382 2.28669 102.269 2.14816C102.246 2.12297 102.266 2.0663 102.266 2.02537C102.288 0.473189 102.069 0.769143 103.522 0.759697C106.444 0.740807 109.37 0.7534 112.292 0.7534H113.085C113.085 1.51532 113.127 2.22058 113.075 2.91638C112.972 4.28596 113.33 5.54533 113.865 6.79527C116.674 13.3346 119.465 19.8834 122.265 26.4258C122.345 26.6084 122.435 26.7879 122.558 27.0461C122.68 26.8824 122.767 26.7973 122.812 26.6966C125.673 20.3808 128.576 14.0839 131.36 7.73665C132.272 5.65868 132.881 3.45792 133.596 1.29808C133.741 0.854151 133.957 0.725064 134.412 0.743955C135.256 0.778588 136.103 0.7534 136.999 0.7534V0.750252Z" fill="white"/>
</g>
<defs>
<clipPath id="clip0_4006_2039">
<rect width="137" height="47" fill="white"/>
</clipPath>
</defs>
</svg>
